<?xml version="1.0" encoding="utf-8"?>
<!-- Generator: Adobe Illustrator 23.0.1, SVG Export Plug-In . SVG Version: 6.00 Build 0)  -->
<svg version="1.1" xmlns="http://www.w3.org/2000/svg" xmlns:xlink="http://www.w3.org/1999/xlink" x="0px" y="0px"
	 viewBox="0 0 256 256" style="enable-background:new 0 0 256 256;" xml:space="preserve">
<style type="text/css">
	.st0{fill:#FFFFFF;}
	.st1{fill:none;stroke:#000000;stroke-miterlimit:10;}
	.st2{fill:#808080;}
	.st3{fill:none;stroke:#000000;stroke-width:0.5;stroke-miterlimit:10;}
</style>
<g id="Main">
	<g>
		<path class="st0" d="M19,247.5c-6.34,0-11.5-5.16-11.5-11.5V18c0-6.34,5.16-11.5,11.5-11.5h218c6.34,0,11.5,5.16,11.5,11.5v218
			c0,6.34-5.16,11.5-11.5,11.5H19z"/>
		<path d="M237,7c6.07,0,11,4.93,11,11v218c0,6.07-4.93,11-11,11H19c-6.07,0-11-4.93-11-11V18c0-6.07,4.93-11,11-11H237 M237,6H19
			C12.4,6,7,11.4,7,18v218c0,6.6,5.4,12,12,12h218c6.6,0,12-5.4,12-12V18C249,11.4,243.6,6,237,6L237,6z"/>
	</g>
	<g>
		<path d="M162.8,167.92l-23.92-40.27l23.92-40.28l11.55,40.28L162.8,167.92z M109.5,164.06l-30.08-29.86h47.82l23.91,40.27
			L109.5,164.06z M109.5,91.24l41.65-10.41l-23.91,40.28H79.42L109.5,91.24z M170.69,61l-54.44,14.19l-8.06,13.83L91.84,88.9
			l-39.85,38.76l39.85,38.75l16.34-0.12l8.08,13.82l54.44,14.19l14.58-52.93l-8.29-13.71l8.29-13.71L170.69,61z"/>
	</g>
</g>
<g id="Navigation">
	<line class="st1" x1="19.5" y1="12.5" x2="27" y2="12.5"/>
	<polyline class="st1" points="22.5,15.5 19.5,12.5 22.5,9.5 	"/>
	<line class="st1" x1="36" y1="12.5" x2="28.5" y2="12.5"/>
	<polyline class="st1" points="33,9.5 36,12.5 33,15.5 	"/>
	<g>
		<line class="st1" x1="41.5" y1="17.5" x2="41.5" y2="8.5"/>
	</g>
	<g>
		<path class="st2" d="M49.36,11.09l-0.48,2.85c-0.07,0.46-0.26,0.82-0.58,1.09s-0.71,0.4-1.17,0.39c-0.43-0.01-0.76-0.14-1.01-0.39
			s-0.36-0.58-0.34-0.98l0.01-0.11l0.48-2.85h0.72l-0.48,2.86c-0.04,0.27,0,0.48,0.12,0.64s0.29,0.23,0.53,0.24
			c0.26,0.01,0.48-0.06,0.66-0.21s0.29-0.37,0.34-0.65l0.49-2.87H49.36z"/>
		<path class="st2" d="M51.24,13.72h-0.81l-0.29,1.64h-0.72l0.74-4.27l1.34,0c0.46,0,0.82,0.11,1.06,0.33
			c0.25,0.22,0.35,0.53,0.32,0.93c-0.02,0.28-0.11,0.51-0.28,0.72c-0.16,0.2-0.39,0.36-0.68,0.48l0.63,1.76l0,0.04h-0.77
			L51.24,13.72z M50.52,13.12l0.7,0.01c0.25,0,0.46-0.07,0.63-0.2s0.27-0.31,0.3-0.54c0.03-0.22-0.01-0.39-0.12-0.51
			s-0.27-0.18-0.49-0.19l-0.77,0L50.52,13.12z"/>
		<path class="st2" d="M53.9,14.77h1.88l-0.11,0.59h-2.6l0.74-4.27h0.72L53.9,14.77z"/>
		<path class="st2" d="M56.28,15.02c0-0.12,0.04-0.22,0.11-0.29s0.17-0.11,0.29-0.12c0.12,0,0.21,0.03,0.29,0.1s0.12,0.17,0.12,0.28
			c0,0.11-0.04,0.21-0.11,0.28s-0.17,0.11-0.29,0.12c-0.12,0-0.21-0.03-0.29-0.1S56.28,15.13,56.28,15.02z"/>
		<path class="st2" d="M57.93,15.02c0-0.12,0.04-0.22,0.11-0.29s0.17-0.11,0.29-0.12c0.12,0,0.21,0.03,0.29,0.1s0.12,0.17,0.12,0.28
			c0,0.11-0.04,0.21-0.11,0.28s-0.17,0.11-0.29,0.12c-0.12,0-0.21-0.03-0.29-0.1S57.93,15.13,57.93,15.02z"/>
		<path class="st2" d="M59.59,15.02c0-0.12,0.04-0.22,0.11-0.29s0.17-0.11,0.29-0.12c0.12,0,0.21,0.03,0.29,0.1s0.12,0.17,0.12,0.28
			c0,0.11-0.04,0.21-0.11,0.28s-0.17,0.11-0.29,0.12c-0.12,0-0.21-0.03-0.29-0.1S59.59,15.13,59.59,15.02z"/>
	</g>
	<g>
		<line class="st1" x1="8" y1="19.5" x2="248" y2="19.5"/>
	</g>
	<line class="st1" x1="236" y1="12.5" x2="228.5" y2="12.5"/>
	<polyline class="st1" points="233,9.5 236,12.5 233,15.5 	"/>
	<line class="st3" x1="43.5" y1="17.5" x2="237.5" y2="17.5"/>
</g>
</svg>
