<?xml version="1.0" encoding="utf-8"?>
<!-- Generator: Adobe Illustrator 25.3.1, SVG Export Plug-In . SVG Version: 6.00 Build 0)  -->
<svg version="1.1" id="Layer_1" xmlns="http://www.w3.org/2000/svg" xmlns:xlink="http://www.w3.org/1999/xlink" x="0px" y="0px"
	 viewBox="0 0 128 128" style="enable-background:new 0 0 128 128;" xml:space="preserve">
<style type="text/css">
	.st0{fill:#FAFBFB;stroke:#FAFBFB;stroke-miterlimit:10;}
	.st1{fill:#2FA6DE;stroke:#2FA6DE;stroke-miterlimit:10;}
	.st2{fill:#231F20;stroke:#231F20;stroke-linejoin:round;stroke-miterlimit:10;}
	.st3{fill:#403E3D;}
	.st4{fill:#676464;}
</style>
<path class="st0" d="M30.4,66.34V8.59c0-2.89,2.36-5.25,5.25-5.25h55.33c17.68,17.68,0,0,17.68,17.68v98.23
	c0,2.89-2.36,5.25-5.25,5.25H35.65c-2.89,0-5.25-2.36-5.25-5.25V97.24"/>
<path class="st1" d="M69.57,97.24H13.49c-2.36,0-4.29-1.93-4.29-4.29V70.64c0-2.36,1.93-4.29,4.29-4.29h56.08
	c2.36,0,4.29,1.93,4.29,4.29v22.31C73.87,95.31,71.93,97.24,69.57,97.24z"/>
<g>
	<path d="M28.11,90.46c-1.47,0-2.55-0.41-3.24-1.24s-1.04-2.04-1.04-3.63V72.7h3.42v12.75c0,0.29,0.02,0.58,0.05,0.84
		c0.03,0.27,0.11,0.49,0.23,0.67s0.31,0.26,0.58,0.26c0.27,0,0.47-0.08,0.59-0.25s0.19-0.39,0.23-0.67
		c0.03-0.27,0.04-0.56,0.04-0.85V72.7h3.42v12.89c0,1.6-0.35,2.81-1.04,3.63S29.58,90.46,28.11,90.46z"/>
	<path d="M36.35,90.3l-1.89-17.6h3.44l0.97,11.11l0.99-11.11h3.28l0.94,11.11l0.94-11.11h3.48l-1.92,17.6h-4.22l-0.88-8.47
		l-0.84,8.47H36.35z"/>
	<path d="M50.78,90.3V72.7h4.77c1.28,0,2.21,0.31,2.79,0.93c0.58,0.62,0.88,1.65,0.88,3.08v0.77c0,0.83-0.15,1.5-0.44,2.01
		c-0.3,0.51-0.75,0.85-1.35,1.01c0.79,0.2,1.32,0.67,1.59,1.41s0.41,1.63,0.41,2.7c0,1.14-0.11,2.14-0.32,2.99
		c-0.21,0.85-0.6,1.52-1.16,1.99s-1.36,0.71-2.39,0.71H50.78z M54.22,79.33h0.72c0.33,0,0.54-0.13,0.63-0.38s0.14-0.56,0.14-0.91
		v-1.77c0-0.57-0.25-0.85-0.75-0.85h-0.74V79.33z M54.57,87.2c0.91,0,1.37-0.43,1.37-1.3v-2.2c0-0.5-0.08-0.9-0.23-1.19
		s-0.43-0.43-0.84-0.43h-0.65v5.1C54.37,87.19,54.48,87.2,54.57,87.2z"/>
</g>
<path class="st2" d="M93.69,21c-1.51,0-2.73-1.23-2.73-2.74l0.02-14.91l17.68,17.68L93.69,21"/>
<g>
	<path class="st3" d="M73.87,37.6V18.35L57.2,8.73v7.38l6.53,3.77c0.24,0.13,0.24,0.5,0,0.63c0,0-7.76,4.48-7.76,4.48
		c-0.23,0.14-0.51,0.13-0.73,0l-7.76-4.48c-0.24-0.13-0.24-0.5,0-0.63l6.53-3.77l0-7.38l-16.66,9.62V37.6l0-0.09v0.09l6.39-3.69
		l0-7.54c0-0.27,0.31-0.46,0.55-0.31c0,0,7.76,4.48,7.76,4.48c0.23,0.14,0.37,0.38,0.37,0.63l0,8.96c0.01,0.27-0.31,0.46-0.55,0.32
		l-6.53-3.77l-6.39,3.69l16.66,9.62l16.66-9.62l-6.39-3.69l-6.53,3.77c-0.23,0.14-0.56-0.04-0.55-0.32l0-8.96
		c0-0.27,0.15-0.51,0.37-0.63l7.76-4.48c0.23-0.14,0.56,0.04,0.55,0.32l0,7.54L73.87,37.6z"/>
	<path d="M55.61,49.98l16.66-9.62l-6.39-3.69l-6.53,3.77c-0.23,0.14-0.56-0.04-0.55-0.32c0,0,0-8.96,0-8.96
		c0-0.27,0.15-0.51,0.37-0.63l7.76-4.48c0.23-0.14,0.56,0.04,0.55,0.32c0,0,0,7.54,0,7.54l6.39,3.69V18.35L55.61,28.9L55.61,49.98z"
		/>
	<path class="st4" d="M57.2,8.73v7.38l6.53,3.77c0.24,0.13,0.24,0.5,0,0.63c0,0-7.76,4.48-7.76,4.48c-0.23,0.14-0.51,0.13-0.73,0
		l-7.76-4.48c-0.24-0.13-0.24-0.5,0-0.63c0,0,6.53-3.77,6.53-3.77l0-7.38l-16.66,9.62L55.61,28.9l18.26-10.54L57.2,8.73z"/>
	<path class="st3" d="M51.86,40.44l-6.53-3.77l-6.39,3.69l16.66,9.62l0-21.09L37.34,18.35V37.6l0-0.09v0.09l6.39-3.69l0-7.54
		c0-0.27,0.31-0.46,0.55-0.31c0,0,7.76,4.48,7.76,4.48c0.23,0.14,0.37,0.38,0.37,0.63l0,8.96C52.42,40.39,52.1,40.59,51.86,40.44z"
		/>
</g>
</svg>
